<?xml version="1.0" standalone="no"?>
<!DOCTYPE svg PUBLIC "-//W3C//DTD SVG 20010904//EN"
 "http://www.w3.org/TR/2001/REC-SVG-20010904/DTD/svg10.dtd">
<svg version="1.0" xmlns="http://www.w3.org/2000/svg"
 width="1000.000000pt" height="1000.000000pt" viewBox="0 0 1000.000000 1000.000000"
 preserveAspectRatio="xMidYMid meet">
<metadata>
Created by potrace 1.14, written by Peter Selinger 2001-2017
</metadata>
<g transform="translate(0.000000,1000.000000) scale(0.100000,-0.100000)"
fill="#000000" stroke="none">
<path d="M2865 9889 c-734 -67 -1407 -381 -1931 -904 -193 -191 -284 -301
-418 -504 -249 -375 -410 -794 -489 -1276 -21 -128 -21 -155 -24 -1530 l-4
-1401 46 -133 c140 -407 437 -918 798 -1371 742 -930 1721 -1644 2872 -2095
795 -312 1666 -496 2615 -554 431 -27 1055 -22 1385 10 55 6 167 13 249 16
l148 6 152 76 c185 94 320 177 479 297 719 540 1172 1355 1247 2244 8 98 10
942 8 3095 l-3 2959 -370 273 c-203 150 -530 391 -725 536 l-355 262 -2790 1
c-1597 1 -2833 -2 -2890 -7z m5950 -824 c207 -54 345 -261 315 -472 -20 -144
-109 -266 -239 -331 -73 -36 -78 -37 -185 -37 -104 0 -115 2 -179 32 -85 41
-168 119 -206 194 -167 335 133 707 494 614z m-3305 -2625 l0 -480 495 0 495
0 0 -345 0 -345 -495 0 -495 0 0 -480 0 -480 -360 0 -360 0 0 480 0 480 -490
0 -490 0 0 345 0 345 490 0 490 0 0 480 0 480 360 0 360 0 0 -480z m-159
-3369 c-47 -91 -106 -256 -141 -396 -53 -205 -74 -395 -67 -597 3 -87 3 -158
1 -158 -2 0 -111 71 -242 158 -131 86 -481 317 -778 512 l-540 355 165 7 c391
17 904 64 1331 122 135 18 255 34 268 35 l22 1 -19 -39z"/>
</g>
</svg>
