<?xml version="1.0" encoding="UTF-8" standalone="no"?>
<svg
   version="1.1"
   viewBox="0 0 799.99998 799.99997"
   id="svg33"
   sodipodi:docname="pro-favicon.svg"
   width="800"
   height="800"
   inkscape:version="1.1.1 (3bf5ae0d25, 2021-09-20)"
   xmlns:inkscape="http://www.inkscape.org/namespaces/inkscape"
   xmlns:sodipodi="http://sodipodi.sourceforge.net/DTD/sodipodi-0.dtd"
   xmlns:xlink="http://www.w3.org/1999/xlink"
   xmlns="http://www.w3.org/2000/svg"
   xmlns:svg="http://www.w3.org/2000/svg">
  <sodipodi:namedview
     id="namedview35"
     pagecolor="#ffffff"
     bordercolor="#666666"
     borderopacity="1.0"
     inkscape:pageshadow="2"
     inkscape:pageopacity="0.0"
     inkscape:pagecheckerboard="0"
     showgrid="false"
     inkscape:zoom="1.1293222"
     inkscape:cx="394.92714"
     inkscape:cy="386.51501"
     inkscape:window-width="3840"
     inkscape:window-height="2053"
     inkscape:window-x="2293"
     inkscape:window-y="-11"
     inkscape:window-maximized="1"
     inkscape:current-layer="svg33" />
  <defs
     id="defs21">
    <linearGradient
       id="b"
       x2="1"
       gradientTransform="matrix(-1290.2981,1816.7366,-1816.7373,-1290.2976,1204.7378,-725.0186)"
       gradientUnits="userSpaceOnUse"
       xlink:href="#a" />
    <linearGradient
       id="a"
       x2="1"
       gradientTransform="matrix(-954.57,-1344.1,-1344.1,954.57,2718.3,2351.6)"
       gradientUnits="userSpaceOnUse">
      <stop
         stop-color="#fff"
         offset="0"
         id="stop3" />
      <stop
         stop-color="#fff"
         offset=".36806"
         id="stop5" />
      <stop
         stop-color="#6900ff"
         offset=".70985"
         id="stop7" />
      <stop
         stop-color="#6900ff"
         offset="1"
         id="stop9" />
    </linearGradient>
    <linearGradient
       id="c"
       x1="-0.24131"
       x2="1"
       y1="-0.13177"
       gradientTransform="matrix(-365.38508,716.80044,-716.80072,-365.38494,448.92803,377.15787)"
       gradientUnits="userSpaceOnUse"
       xlink:href="#a">
      <stop
         stop-color="#fff"
         offset="0"
         id="stop12" />
      <stop
         stop-color="#fff"
         offset=".4081"
         id="stop14" />
      <stop
         stop-color="#6900ff"
         offset=".80205"
         id="stop16" />
      <stop
         stop-color="#6900ff"
         offset="1"
         id="stop18" />
    </linearGradient>
  </defs>
  <path
     d="M 251.72369,8.1741363 C 112.68819,8.1741363 0,120.86229 0,259.89772 v 196.54532 l 0.06893484,0.20823 C 0.55147874,458.72063 4.414567,473.20374 14.619255,495.06419 56.073426,574.75486 200.20604,791.96035 648.27238,787.47959 737.58254,748.85987 800,659.96031 800,556.44658 V 8.1715006 Z"
     fill="url(#b)"
     id="path23"
     style="fill:url(#b);stroke-width:1.01375" />
  <path
     d="M 14.621283,495.06682 C 57.678188,585.96041 227.31568,827.03865 648.27441,787.48222 399.99747,791.82917 388.20758,632.30792 430.19701,550.62017 202.75258,584.02922 43.918591,557.68132 0.00304124,456.44304 c 0.4825439,2.07079 4.29149806,16.81707 14.62128276,38.62074"
     fill="url(#c)"
     id="path25"
     style="fill:url(#c);stroke-width:1.01375" />
  <path
     d="m 730.83098,108.17321 c 0,19.07872 -15.46573,34.54547 -34.54446,34.54547 -19.07975,0 -34.54548,-15.46675 -34.54548,-34.54547 0,-19.078724 15.46573,-34.544452 34.54548,-34.544452 19.07873,0 34.54446,15.465728 34.54446,34.544452"
     fill="#ffffff"
     id="path27"
     style="stroke-width:1.01375" />
  <path
     d="m 500.33517,397.52406 h -78.92735 v 77.11677 h -58.51757 v -77.11677 h -78.4732 v -55.33844 h 78.4732 v -77.11677 h 58.51757 v 77.11677 h 78.92735 z"
     opacity="0.22"
     id="path29"
     style="stroke-width:1.01375" />
  <path
     d="M 520.05256,378.36423 H 441.12521 V 455.481 H 382.60764 V 378.36423 H 304.13242 V 323.0258 h 78.47522 v -77.11677 h 58.51757 v 77.11677 h 78.92735 z"
     fill="#ffffff"
     id="path31"
     style="stroke-width:1.01375" />
</svg>
