<?xml version="1.0" encoding="UTF-8" standalone="no"?>
<svg
   width="800"
   height="800"
   viewBox="0 0 799.99999 799.99999"
   version="1.1"
   id="svg34"
   sodipodi:docname="os-favicon.svg"
   inkscape:version="1.1.1 (3bf5ae0d25, 2021-09-20)"
   xmlns:inkscape="http://www.inkscape.org/namespaces/inkscape"
   xmlns:sodipodi="http://sodipodi.sourceforge.net/DTD/sodipodi-0.dtd"
   xmlns="http://www.w3.org/2000/svg"
   xmlns:svg="http://www.w3.org/2000/svg">
  <sodipodi:namedview
     id="namedview36"
     pagecolor="#ffffff"
     bordercolor="#666666"
     borderopacity="1.0"
     inkscape:pageshadow="2"
     inkscape:pageopacity="0.0"
     inkscape:pagecheckerboard="0"
     showgrid="false"
     inkscape:zoom="1.1293289"
     inkscape:cx="394.9248"
     inkscape:cy="386.51273"
     inkscape:window-width="3840"
     inkscape:window-height="2053"
     inkscape:window-x="2293"
     inkscape:window-y="-11"
     inkscape:window-maximized="1"
     inkscape:current-layer="svg34" />
  <defs
     id="defs20">
    <clipPath
       id="clipPath4">
      <path
         d="m 1643.06,1992.53 h 974 v -973 h -974 z"
         id="path2" />
    </clipPath>
    <linearGradient
       x1="0"
       y1="0"
       x2="1"
       y2="0"
       gradientUnits="userSpaceOnUse"
       gradientTransform="matrix(-1290.2628,1816.7981,-1816.7991,-1290.2621,1204.7897,-725.0287)"
       spreadMethod="pad"
       id="B">
      <stop
         offset="0"
         stop-color="#fff"
         id="stop6" />
      <stop
         offset=".36805947"
         stop-color="#fff"
         id="stop8" />
      <stop
         offset=".709849"
         stop-color="#0064ff"
         id="stop10" />
    </linearGradient>
    <linearGradient
       x1="-0.18670529"
       y1="-0.1279546"
       x2="1"
       y2="0"
       gradientUnits="userSpaceOnUse"
       gradientTransform="matrix(-365.39031,716.80359,-716.80396,-365.39013,448.92868,377.15677)"
       spreadMethod="pad"
       id="C">
      <stop
         offset="0"
         stop-color="#fff"
         id="stop13" />
      <stop
         offset=".38140264"
         stop-color="#fff"
         id="stop15" />
      <stop
         offset=".7852248"
         stop-color="#0064ff"
         id="stop17" />
    </linearGradient>
  </defs>
  <path
     d="M 251.72346,8.1709659 C 112.6917,8.1709659 -9.1470997e-6,120.86126 -9.1470997e-6,259.89566 v 0 196.54941 l 0.0689353371,0.20816 c 0.48254737,2.06941 4.34562971,16.55258 14.55076281,38.41318 v 0 c 42.501475,88.27774 185.587451,296.89624 633.656331,292.4141 v 0 C 737.58648,748.86052 800,659.96371 800,556.44587 v 0 V 8.1709659 Z"
     fill="url(#B)"
     id="path22"
     style="fill:url(#B);stroke-width:1.35167" />
  <path
     d="m 14.621041,495.06641 c 43.057553,90.89458 212.692549,331.9762 633.656329,292.41545 v 0 c -248.2767,4.34698 -260.06464,-155.17472 -218.07761,-236.859 v 0 C 202.75774,584.03215 43.922615,557.684 -9.1470997e-6,456.44507 v 0 C 0.48253822,458.51584 4.2915536,473.26258 14.621041,495.06641"
     fill="url(#C)"
     id="path24"
     style="fill:url(#C);stroke-width:1.35167" />
  <path
     d="m 730.83406,108.17027 c 0,19.07886 -15.46584,34.54605 -34.54471,34.54605 -19.07887,0 -34.54607,-15.46719 -34.54607,-34.54605 0,-19.078856 15.46585,-34.544694 34.54607,-34.544694 19.08022,0 34.54471,15.465838 34.54471,34.544694"
     fill="#ffffff"
     id="path26"
     style="stroke-width:1.35167" />
  <path
     d="m 500.34079,397.51864 h -78.92826 v 77.11697 h -58.51799 v -77.11697 h -78.4741 v -55.33883 h 78.4741 v -77.11698 h 58.51799 v 77.11698 h 78.92826 z"
     opacity="0.220001"
     id="path28"
     style="stroke-width:1.35167" />
  <path
     d="m 520.05954,378.36206 h -78.92826 v 77.11697 h -58.51799 v -77.11697 h -78.47545 v -55.33883 h 78.47545 v -77.11698 h 58.51799 v 77.11698 h 78.92826 z"
     fill="#ffffff"
     id="path30"
     style="stroke-width:1.35167" />
</svg>
