<?xml version="1.0" standalone="no"?>
<!DOCTYPE svg PUBLIC "-//W3C//DTD SVG 20010904//EN"
 "http://www.w3.org/TR/2001/REC-SVG-20010904/DTD/svg10.dtd">
<svg version="1.0" xmlns="http://www.w3.org/2000/svg"
 width="1000.000000pt" height="1000.000000pt" viewBox="0 0 1000.000000 1000.000000"
 preserveAspectRatio="xMidYMid meet">
<metadata>
Created by potrace 1.14, written by Peter Selinger 2001-2017
</metadata>
<g transform="translate(0.000000,1000.000000) scale(0.100000,-0.100000)"
fill="#000000" stroke="none">
<path d="M2988 9895 c-2 -1 -46 -5 -98 -9 -52 -3 -106 -8 -120 -10 -14 -2 -46
-7 -71 -10 -59 -9 -92 -14 -154 -26 -27 -6 -59 -12 -70 -14 -141 -28 -407
-112 -540 -171 -16 -7 -52 -23 -80 -35 -262 -116 -527 -284 -755 -479 -153
-131 -397 -394 -493 -531 -168 -240 -277 -436 -382 -685 -54 -129 -141 -428
-169 -580 -11 -56 -25 -150 -32 -205 -3 -30 -8 -68 -11 -85 -3 -16 -8 -646
-10 -1399 l-4 -1369 22 -71 c157 -518 575 -1189 1110 -1783 124 -137 442 -445
590 -569 102 -87 285 -232 360 -286 13 -10 54 -40 91 -67 346 -255 907 -569
1353 -756 88 -36 169 -71 180 -75 99 -43 641 -225 725 -244 14 -3 130 -32 258
-65 128 -33 247 -62 265 -64 18 -3 64 -12 102 -20 70 -16 209 -42 275 -52 19
-3 60 -10 90 -15 30 -5 75 -12 100 -15 25 -3 54 -7 65 -9 11 -2 49 -7 85 -11
36 -3 72 -8 80 -10 8 -2 42 -7 75 -10 33 -3 76 -7 95 -10 58 -7 140 -14 240
-21 52 -3 109 -8 125 -10 193 -24 1095 -23 1415 1 87 7 190 15 260 21 36 3 85
7 108 9 28 2 85 23 160 60 602 293 1091 766 1407 1358 158 297 282 676 330
1004 7 54 17 121 21 148 4 28 9 1653 11 3611 l3 3561 -3505 0 c-1927 0 -3506
-1 -3507 -2z"/>
</g>
</svg>
